<?xml version="1.0" encoding="UTF-8" standalone="no"?>
<svg
   xmlns:dc="http://purl.org/dc/elements/1.1/"
   xmlns:cc="http://creativecommons.org/ns#"
   xmlns:rdf="http://www.w3.org/1999/02/22-rdf-syntax-ns#"
   xmlns:svg="http://www.w3.org/2000/svg"
   xmlns="http://www.w3.org/2000/svg"
   xmlns:sodipodi="http://sodipodi.sourceforge.net/DTD/sodipodi-0.dtd"
   xmlns:inkscape="http://www.inkscape.org/namespaces/inkscape"
   inkscape:version="1.0 (4035a4f, 2020-05-01)"
   sodipodi:docname="spanilla-icon.svg"
   id="svg2205"
   version="1.1"
   width="512pt"
   viewBox="-61 0 512 512"
   height="512pt">
  <metadata
     id="metadata2211">
    <rdf:RDF>
      <cc:Work
         rdf:about="">
        <dc:format>image/svg+xml</dc:format>
        <dc:type
           rdf:resource="http://purl.org/dc/dcmitype/StillImage" />
      </cc:Work>
    </rdf:RDF>
  </metadata>
  <defs
     id="defs2209" />
  <sodipodi:namedview
     inkscape:current-layer="svg2205"
     inkscape:window-maximized="1"
     inkscape:window-y="23"
     inkscape:window-x="0"
     inkscape:cy="341.33333"
     inkscape:cx="341.33333"
     inkscape:zoom="0.34647542"
     showgrid="false"
     id="namedview2207"
     inkscape:window-height="855"
     inkscape:window-width="1440"
     inkscape:pageshadow="2"
     inkscape:pageopacity="0"
     guidetolerance="10"
     gridtolerance="10"
     objecttolerance="10"
     borderopacity="1"
     bordercolor="#666666"
     pagecolor="#ffffff" />
  <path
     style="stroke-width:0.946878"
     id="path2175"
     fill="#ff9100"
     d="m 245.7187,358.35385 c -5.11725,-1.71313 -7.7884,-7.42726 -8.16104,-12.32191 -0.60876,-7.82774 -7.1944,-13.7384 -15.21893,-13.09691 -7.80316,0.61183 -13.63985,7.45322 -13.03478,15.29208 l -36.05318,77.69148 c 0,7.86853 6.33845,14.23899 14.16744,14.23899 h 92.58643 c 7.82899,0 14.16744,-6.37046 14.16744,-14.23899 0,-30.70282 -19.46547,-57.86072 -48.45338,-67.56474 z m 0,0" />
  <path
     style="stroke-width:0.946878"
     id="path2177"
     fill="#f03800"
     d="m 209.16744,364.1199 v 33.32072 c 0,19.64906 -7.93598,37.59241 -20.68299,50.40379 -12.75069,12.81509 -30.60388,20.79115 -50.15421,20.79115 -7.36781,9.68177 -17.00093,17.65783 -28.33488,22.49686 -8.78455,3.98617 -18.133586,7.87965 -28.334881,7.87965 -7.93598,0 -14.16744,-8.16517 -14.16744,-16.13752 v -85.43393 c 0,-7.97606 6.23146,-14.23899 14.16744,-14.23899 L 138.33024,361.55762 195,349.88091 c 7.93598,0 14.16744,6.26664 14.16744,14.23899 z m 0,0" />
  <path
     style="stroke-width:0.946878"
     id="path2179"
     fill="#cd0000"
     d="m 209.16744,364.1199 v 33.32072 c 0,19.64906 -7.93598,37.59241 -20.68299,50.40379 -12.75069,12.81509 -30.60388,20.79115 -50.15421,20.79115 -7.36781,9.68177 -17.00093,17.65783 -28.33488,22.49686 V 372.38148 L 138.33024,361.55762 195,349.88091 c 7.93598,0 14.16744,6.26664 14.16744,14.23899 z m 0,0" />
  <path
     style="stroke-width:0.946878"
     id="path2181"
     fill="#ffb64c"
     d="m 251.66976,12.987934 c -7.93598,0 -14.16744,6.26293 -14.16744,14.238988 V 155.37782 h 127.50696 c 7.93598,0 14.16744,-6.26664 14.16744,-14.23899 0,-70.627609 -57.23793,-128.150896 -127.50696,-128.150896 z m 0,0" />
  <path
     style="stroke-width:0.946878"
     id="path2183"
     fill="#ff9100"
     d="m 321.09022,155.37782 c -6.51924,32.46415 -35.13452,56.95595 -69.42046,56.95595 -7.93598,0 -14.16744,-6.26664 -14.16744,-14.23899 v -42.71696 z m 0,0" />
  <path
     style="stroke-width:0.946878"
     id="path2185"
     fill="#f03800"
     d="M 180.83256,27.226922 109.99536,95.003024 81.660479,122.0571 c -1.416744,0 -3.117574,-0.28181 -4.534319,-0.85286 C 37.457328,107.25078 10.823278,69.372845 10.823278,27.226922 c 0,-7.976058 6.23146,-14.238988 14.16744,-14.238988 H 166.66512 c 7.93598,0 14.16744,6.26293 14.16744,14.238988 z m 0,0" />
  <path
     style="stroke-width:0.946878"
     id="path2187"
     fill="#cd0000"
     d="m 180.83256,27.226922 -70.8372,67.776102 v -82.01509 h 56.66976 c 7.93598,0 14.16744,6.26293 14.16744,14.238988 z m 0,0" />
  <path
     style="stroke-width:0.946878"
     id="path2189"
     fill="#ff641a"
     d="m 265.8372,141.13883 v 142.38988 c 0,54.96101 -44.48724,99.67292 -99.17208,99.67292 h -21.53525 c -7.93229,0 -14.16744,-6.26664 -14.16744,-14.23899 -0.28408,-1.4239 -1.70083,-5.6956 -3.39797,-11.96223 l -3.11757,-11.10567 c -2.55309,-9.39625 -5.38289,-19.93459 -7.93598,-29.33084 l -6.51555,6.83398 -70.837201,-76.03768 v -20.78744 c 0,-23.0679 11.333952,-43.57353 28.33488,-56.67043 v -57.24148 c 0,-33.602528 16.716842,-63.508111 42.502321,-81.447752 15.86827,-11.676712 35.70269,-18.225164 56.66976,-18.225164 H 195 v 14.238988 c -15.86827,0 -31.16837,6.833973 -41.93415,18.796206 -11.04986,12.244047 -16.15235,27.906934 -14.45152,44.140864 2.83348,28.477978 29.46753,50.974838 60.6359,50.974838 z m 0,0" />
  <path
     style="stroke-width:0.946878"
     id="path2191"
     fill="#f03800"
     d="m 265.8372,141.13883 v 142.38988 c 0,54.96101 -44.48724,99.67292 -99.17208,99.67292 h -21.53525 c -7.93229,0 -14.16744,-6.26664 -14.16744,-14.23899 -0.28408,-1.4239 -1.70083,-5.6956 -3.39797,-11.96223 l -3.11757,-11.10567 c -2.55309,-9.39625 -5.38289,-19.93459 -7.93598,-29.33084 -3.39798,-12.24775 -6.23146,-22.21504 -6.51555,-23.0679 V 31.213098 C 125.86363,19.536386 145.69805,12.987934 166.66512,12.987934 H 195 v 14.238988 c -15.86827,0 -31.16837,6.833973 -41.93415,18.796206 -11.04986,12.244047 -16.15235,27.906934 -14.45152,44.140864 2.83348,28.477978 29.46753,50.974838 60.6359,50.974838 z m 0,0" />
  <path
     style="stroke-width:0.946878"
     id="path2193"
     fill="#4bb9ec"
     d="m 180.83256,281.53377 v 30.47292 c 0,44.99372 -30.03571,83.15346 -70.8372,95.40122 -9.06864,2.8478 -18.417673,4.27169 -28.334881,4.27169 h -28.33488 c -7.935981,0 -14.16744,-6.26663 -14.16744,-14.23898 V 281.81929 l 70.837201,28.19246 z m 0,0" />
  <path
     style="stroke-width:0.946878"
     id="path2195"
     fill="#0095ff"
     d="m 180.83256,281.53377 v 30.47292 c 0,44.99372 -30.03571,83.15346 -70.8372,95.40122 v -97.39616 z m 0,0" />
  <path
     style="stroke-width:0.946878"
     id="path2197"
     fill="#deecf1"
     d="m 265.8372,155.37782 h -66.646 c -37.04933,0 -70.88516,-26.70923 -74.64839,-63.752848 C 120.2151,49.048913 153.50121,12.987934 195,12.987934 h 56.66976 c 7.8253,0 14.16744,6.374172 14.16744,14.238988 z m 0,0" />
  <path
     style="stroke-width:0.946878"
     id="path2199"
     fill="#714c2f"
     d="m 209.16744,84.182875 c 0,7.864816 -6.34214,14.238988 -14.16744,14.238988 -7.8253,0 -14.16744,-6.374172 -14.16744,-14.238988 0,-7.864816 6.34214,-14.238988 14.16744,-14.238988 7.8253,0 14.16744,6.374172 14.16744,14.238988 z m 0,0" />
  <path
     style="stroke-width:0.946878"
     id="path2201"
     fill="#ffd396"
     d="m 180.83256,247.3602 v 34.17357 l -62.90122,42.43144 c -2.55309,1.4239 -5.10249,2.28047 -7.93598,2.28047 -2.83349,0 -5.38289,-0.85657 -7.93598,-2.28047 L 39.158159,281.81929 V 247.3602 l 70.837201,47.55599 z m 0,0" />
  <path
     style="stroke-width:0.946878"
     id="path2203"
     fill="#ffb64c"
     d="m 180.83256,247.3602 v 34.17357 l -62.90122,42.43144 c -2.55309,1.4239 -5.10249,2.28047 -7.93598,2.28047 V 294.9199 Z m 0,0" />
</svg>
